<svg width="68" height="68" viewBox="0 0 68 68" fill="none" xmlns="http://www.w3.org/2000/svg">
<path d="M0 0H68V34C68 52.7777 52.7777 68 34 68V68C15.2223 68 0 52.7777 0 34V0Z" fill="url(#paint0_linear_4393_7205)"/>
<path d="M26.637 38H22.395V32.645H17.376V38H13.134V23.993H17.376V28.949H22.395V23.993H26.637V38Z" fill="black"/>
<path d="M41.2735 36.236C39.8175 37.58 37.9975 38.252 35.8135 38.252C33.6295 38.252 31.8025 37.58 30.3325 36.236C28.8765 34.878 28.1485 33.135 28.1485 31.007C28.1485 28.879 28.8765 27.143 30.3325 25.799C31.8025 24.441 33.6295 23.762 35.8135 23.762C37.9975 23.762 39.8175 24.441 41.2735 25.799C42.7435 27.143 43.4785 28.879 43.4785 31.007C43.4785 33.135 42.7435 34.878 41.2735 36.236ZM33.3775 33.506C34.0075 34.178 34.8195 34.514 35.8135 34.514C36.8075 34.514 37.6125 34.178 38.2285 33.506C38.8585 32.834 39.1735 32.001 39.1735 31.007C39.1735 30.013 38.8585 29.18 38.2285 28.508C37.6125 27.836 36.8075 27.5 35.8135 27.5C34.8195 27.5 34.0075 27.836 33.3775 28.508C32.7615 29.18 32.4535 30.013 32.4535 31.007C32.4535 32.001 32.7615 32.834 33.3775 33.506Z" fill="black"/>
<path d="M51.8175 38H47.5755V27.689H43.8164V23.993H55.5555V27.689H51.8175V38Z" fill="black"/>
<defs>
<linearGradient id="paint0_linear_4393_7205" x1="-5.27911" y1="7.50983" x2="52.2113" y2="63.7811" gradientUnits="userSpaceOnUse">
<stop stop-color="#D89719"/>
<stop offset="0.458333" stop-color="#D89C1E"/>
<stop offset="0.625" stop-color="#FCE474"/>
<stop offset="1" stop-color="#D89C1E"/>
</linearGradient>
</defs>
</svg>
