<svg width="129" height="36" viewBox="0 0 129 36" fill="none" xmlns="http://www.w3.org/2000/svg">
<path d="M56.5377 23.0001H51.5517V21.5043C50.4437 22.7231 48.9109 23.3325 46.9535 23.3325C45.4761 23.3325 44.3681 22.9447 43.6295 22.1691C42.8908 21.3935 42.5215 20.3963 42.5215 19.1775V9.62105H47.5075V17.0446C47.5075 18.3004 48.1538 18.9282 49.4465 18.9282C50.2221 18.9282 50.9238 18.5774 51.5517 17.8756V9.62105H56.5377V23.0001Z" fill="white"/>
<path d="M73.0592 23.0001H68.0732V21.5874C67.0391 22.7508 65.7833 23.3325 64.306 23.3325C62.6071 23.3325 61.1944 22.7139 60.0679 21.4766C58.9599 20.2394 58.4059 18.5127 58.4059 16.2967C58.4059 14.1361 58.9599 12.428 60.0679 11.1722C61.1944 9.91651 62.6071 9.28864 64.306 9.28864C65.8572 9.28864 67.1129 9.87034 68.0732 11.0337V4.52425H73.0592V23.0001ZM65.9957 18.9282C66.8821 18.9282 67.5746 18.6235 68.0732 18.0141V14.5793C67.5931 13.9884 66.9006 13.6929 65.9957 13.6929C65.294 13.6929 64.703 13.933 64.2229 14.4131C63.7428 14.8748 63.5027 15.5027 63.5027 16.2967C63.5027 17.1093 63.7428 17.7556 64.2229 18.2357C64.703 18.6974 65.294 18.9282 65.9957 18.9282Z" fill="white"/>
<path d="M87.8981 21.2827C86.5316 22.6493 84.7034 23.3325 82.4135 23.3325C80.1237 23.3325 78.2955 22.6493 76.929 21.2827C75.5809 19.9162 74.9069 18.2542 74.9069 16.2967C74.9069 14.3393 75.5809 12.6865 76.929 11.3384C78.2955 9.97191 80.1237 9.28864 82.4135 9.28864C84.7034 9.28864 86.5316 9.97191 87.8981 11.3384C89.2647 12.6865 89.9479 14.3393 89.9479 16.2967C89.9479 18.2542 89.2647 19.9162 87.8981 21.2827ZM82.4135 18.9282C83.1707 18.9282 83.7616 18.6882 84.1863 18.208C84.6111 17.7094 84.8234 17.0723 84.8234 16.2967C84.8234 15.5396 84.6111 14.921 84.1863 14.4408C83.7616 13.9422 83.1707 13.6929 82.4135 13.6929C81.6749 13.6929 81.0932 13.9422 80.6684 14.4408C80.2437 14.921 80.0313 15.5396 80.0313 16.2967C80.0313 17.0723 80.2437 17.7094 80.6684 18.208C81.0932 18.6882 81.6749 18.9282 82.4135 18.9282Z" fill="white"/>
<path d="M105.852 23.0001H100.866V15.6042C100.866 14.33 100.22 13.6929 98.9268 13.6929C98.1328 13.6929 97.4218 14.0438 96.7939 14.7455V23.0001H91.8079V9.62105H96.7939V11.1445C97.8835 9.90728 99.4162 9.28864 101.392 9.28864C102.869 9.28864 103.977 9.68568 104.716 10.4797C105.473 11.2553 105.852 12.2618 105.852 13.499V23.0001Z" fill="white"/>
<path d="M113.093 7.84825C112.558 8.38378 111.902 8.65155 111.127 8.65155C110.351 8.65155 109.686 8.38378 109.132 7.84825C108.597 7.29425 108.329 6.62945 108.329 5.85385C108.329 5.07825 108.597 4.42268 109.132 3.88715C109.686 3.33315 110.351 3.05615 111.127 3.05615C111.902 3.05615 112.558 3.33315 113.093 3.88715C113.647 4.42268 113.924 5.07825 113.924 5.85385C113.924 6.62945 113.647 7.29425 113.093 7.84825ZM113.62 23.0001H108.634V9.62105H113.62V23.0001Z" fill="white"/>
<path d="M121.826 23.3325C120.607 23.3325 119.389 23.1479 118.17 22.7785C116.951 22.3907 115.982 21.8921 115.261 21.2827L117.256 17.931C117.791 18.3558 118.548 18.7436 119.527 19.0944C120.506 19.4453 121.355 19.6207 122.076 19.6207C122.962 19.6207 123.405 19.4268 123.405 19.039C123.405 18.8544 123.211 18.7066 122.823 18.5958C122.454 18.485 121.992 18.4112 121.438 18.3742C120.884 18.3188 120.275 18.208 119.61 18.0418C118.945 17.8756 118.336 17.6633 117.782 17.4047C117.228 17.1277 116.757 16.6845 116.369 16.0751C116 15.4657 115.815 14.7271 115.815 13.8591C115.815 12.5849 116.342 11.5046 117.394 10.6182C118.465 9.73184 119.933 9.28864 121.799 9.28864C123.922 9.28864 125.852 9.86111 127.588 11.006L125.76 14.2469C125.298 13.8776 124.707 13.5544 123.987 13.2774C123.285 13.0004 122.565 12.8619 121.826 12.8619C121.475 12.8619 121.18 12.9266 120.94 13.0558C120.7 13.1666 120.58 13.2959 120.58 13.4436C120.58 13.6283 120.838 13.7668 121.355 13.8591C121.872 13.9515 122.5 14.0623 123.239 14.1915C123.996 14.3208 124.744 14.5147 125.483 14.7732C126.24 15.0318 126.877 15.5027 127.394 16.1859C127.911 16.8507 128.17 17.7002 128.17 18.7343C128.17 20.0824 127.597 21.1904 126.452 22.0583C125.307 22.9078 123.765 23.3325 121.826 23.3325Z" fill="white"/>
<path fill-rule="evenodd" clip-rule="evenodd" d="M29.9461 2.95365H14.0532V9.96856H22.1763V19.5679C22.1763 22.6265 19.6968 25.106 16.6382 25.106C13.5796 25.106 11.1002 22.6265 11.1002 19.5679V15.6542L14.0533 14.7682H14.0538V19.5679C14.0538 20.9953 15.2109 22.1524 16.6382 22.1524C18.0656 22.1524 19.2227 20.9953 19.2227 19.5679V12.9222H8.88527V19.5665C8.88527 24.0114 12.5348 27.59 16.9788 27.5029C21.3013 27.4181 24.7611 23.8898 24.7611 19.5665V7.75371H16.2694V4.80006H27.7147V19.5665C27.7147 25.4985 22.9676 30.3397 17.0367 30.456C10.9391 30.5755 5.93163 25.6653 5.93163 19.5665V12.9222H3.00166L3.10882 19.566C3.22779 26.9421 9.24118 32.8593 16.6183 32.8593C24.1396 32.8593 30.2131 26.7172 30.1286 19.1963L29.9461 2.95365ZM11.1002 0V1.47681H11.0996V4.80006H5.93163V9.96856H0L0.155565 19.6136C0.300542 28.6022 7.62851 35.813 16.6183 35.813C25.7839 35.813 33.185 28.3282 33.082 19.1631L32.8667 0H11.1002ZM8.88527 7.75371H11.0996V9.96856H8.88527V7.75371Z" fill="white"/>
</svg>
