<svg width="112" height="30" viewBox="0 0 112 30" fill="none" xmlns="http://www.w3.org/2000/svg">
<path d="M39.3952 22.7401C36.099 22.7401 34.3711 20.3477 34.3711 16.7325V9.15645H38.3851V16.0413C38.3851 17.9818 38.9433 19.0983 40.4319 19.0983C41.9471 19.0983 42.9307 18.0616 42.9307 15.616V9.15645H46.9447V22.4477H42.9307V21.092C42.2927 22.0224 41.1231 22.7401 39.3952 22.7401Z" fill="#171F26"/>
<path d="M54.5425 22.7401C51.0602 22.7401 48.3753 19.5502 48.3753 15.8021C48.3753 12.0539 51.0602 8.86404 54.5425 8.86404C56.3501 8.86404 57.5729 9.76784 58.1577 10.4856V2.51081H62.1717V22.4477H58.1577V21.1186C57.5729 21.8363 56.3501 22.7401 54.5425 22.7401ZM55.4463 19.0983C57.2539 19.0983 58.4767 17.716 58.4767 15.8021C58.4767 13.8881 57.2539 12.5058 55.4463 12.5058C53.6387 12.5058 52.4159 13.8881 52.4159 15.8021C52.4159 17.716 53.6387 19.0983 55.4463 19.0983Z" fill="#171F26"/>
<path d="M70.5793 22.7401C66.7514 22.7401 63.5881 19.7097 63.5881 15.8021C63.5881 11.8944 66.7514 8.86404 70.5793 8.86404C74.4072 8.86404 77.5705 11.8944 77.5705 15.8021C77.5705 19.7097 74.4072 22.7401 70.5793 22.7401ZM70.5793 18.992C72.2806 18.992 73.53 17.716 73.53 15.8021C73.53 13.8881 72.2806 12.6122 70.5793 12.6122C68.878 12.6122 67.6286 13.8881 67.6286 15.8021C67.6286 17.716 68.878 18.992 70.5793 18.992Z" fill="#171F26"/>
<path d="M78.9765 22.4477V9.15645H82.9905V10.5122C83.6284 9.58177 84.9576 8.86404 86.6855 8.86404C89.9551 8.86404 91.8425 11.283 91.8425 14.7654V22.4477H87.8285V15.4565C87.8285 13.6223 87.1374 12.5058 85.6753 12.5058C84.1601 12.5058 82.9905 13.5691 82.9905 15.9882V22.4477H78.9765Z" fill="#171F26"/>
<path d="M96.1638 7.34884C94.8081 7.34884 93.665 6.23237 93.665 4.85008C93.665 3.46778 94.8081 2.35132 96.1638 2.35132C97.5727 2.35132 98.6892 3.46778 98.6892 4.85008C98.6892 6.23237 97.5727 7.34884 96.1638 7.34884ZM94.1701 22.4477V9.15645H98.1841V22.4477H94.1701Z" fill="#171F26"/>
<path d="M106.063 22.7401C102.448 22.7401 100.002 20.7199 99.8692 18.1148H104.096C104.176 19.1781 105.053 19.7097 106.196 19.7097C107.233 19.7097 107.684 19.3641 107.684 18.8591C107.684 18.2477 107.206 18.035 106.169 17.7426L103.484 17.0515C101.145 16.4401 100.135 14.8717 100.135 12.878C100.135 10.5653 102.182 8.86404 105.691 8.86404C108.615 8.86404 110.981 10.3527 111.193 13.1704H107.153C106.967 12.1869 106.329 11.9476 105.611 11.9476C104.787 11.9476 104.255 12.2666 104.255 12.7983C104.255 13.4894 104.973 13.7021 105.611 13.835L108.03 14.473C110.715 15.1907 111.778 16.5198 111.778 18.6464C111.778 21.1186 109.386 22.7401 106.063 22.7401Z" fill="#171F26"/>
<path fill-rule="evenodd" clip-rule="evenodd" d="M24.1331 3.30928H11.7074V8.79381H18.0583V16.299C18.0583 18.6903 16.1198 20.6289 13.7285 20.6289C11.3371 20.6289 9.39856 18.6903 9.39856 16.299V13.2391L11.7075 12.5464H11.7078V16.299C11.7078 17.4149 12.6125 18.3196 13.7285 18.3196C14.8444 18.3196 15.7491 17.4149 15.7491 16.299V11.1031H7.66687V16.2978C7.66687 19.773 10.5202 22.571 13.9947 22.5028C17.3742 22.4366 20.0792 19.678 20.0792 16.2979V7.06215H13.4401V4.75287H22.3885V16.2979C22.3885 20.9358 18.677 24.7208 14.04 24.8117C9.27262 24.9052 5.35759 21.0661 5.35759 16.2978V11.1031H3.34682L3.4306 16.2975C3.52362 22.0644 7.94514 26.6907 13.7128 26.6907C19.5934 26.6907 24.3418 21.8886 24.2758 16.0084L24.1331 3.30928ZM9.39856 1V2.15463H9.39812V4.75287H5.35759V8.79381H1L1.12163 16.3347C1.23498 23.3624 6.68428 29 13.7128 29C20.8789 29 26.6654 23.1481 26.5849 15.9825L26.4166 1H9.39856ZM7.66687 7.06215H9.39812V8.79381H7.66687V7.06215Z" fill="#171F26" stroke="#171F26" stroke-width="0.49"/>
</svg>
