<svg width="130" height="39" viewBox="0 0 130 39" fill="none" xmlns="http://www.w3.org/2000/svg">
<path d="M56.5379 26H51.5519V24.5042C50.4439 25.723 48.9112 26.3324 46.9537 26.3324C45.4764 26.3324 44.3684 25.9446 43.6297 25.169C42.891 24.3934 42.5217 23.3962 42.5217 22.1774V12.6209H47.5077V20.0445C47.5077 21.3002 48.154 21.9281 49.4467 21.9281C50.2223 21.9281 50.924 21.5772 51.5519 20.8755V12.6209H56.5379V26ZM73.0594 26H68.0734V24.5873C67.0393 25.7507 65.7836 26.3324 64.3062 26.3324C62.6073 26.3324 61.1946 25.7138 60.0681 24.4765C58.9601 23.2392 58.4061 21.5126 58.4061 19.2966C58.4061 17.136 58.9601 15.4278 60.0681 14.1721C61.1946 12.9164 62.6073 12.2885 64.3062 12.2885C65.8574 12.2885 67.1132 12.8702 68.0734 14.0336V7.52412H73.0594V26ZM65.9959 21.9281C66.8823 21.9281 67.5748 21.6234 68.0734 21.014V17.5792C67.5933 16.9883 66.9008 16.6928 65.9959 16.6928C65.2942 16.6928 64.7033 16.9329 64.2231 17.413C63.743 17.8747 63.5029 18.5025 63.5029 19.2966C63.5029 20.1091 63.743 20.7555 64.2231 21.2356C64.7033 21.6973 65.2942 21.9281 65.9959 21.9281ZM87.8984 24.2826C86.5318 25.6491 84.7036 26.3324 82.4138 26.3324C80.1239 26.3324 78.2957 25.6491 76.9292 24.2826C75.5811 22.9161 74.9071 21.2541 74.9071 19.2966C74.9071 17.3391 75.5811 15.6864 76.9292 14.3383C78.2957 12.9718 80.1239 12.2885 82.4138 12.2885C84.7036 12.2885 86.5318 12.9718 87.8984 14.3383C89.2649 15.6864 89.9482 17.3391 89.9482 19.2966C89.9482 21.2541 89.2649 22.9161 87.8984 24.2826ZM82.4138 21.9281C83.1709 21.9281 83.7618 21.688 84.1866 21.2079C84.6113 20.7093 84.8237 20.0722 84.8237 19.2966C84.8237 18.5395 84.6113 17.9208 84.1866 17.4407C83.7618 16.9421 83.1709 16.6928 82.4138 16.6928C81.6751 16.6928 81.0934 16.9421 80.6687 17.4407C80.2439 17.9208 80.0316 18.5395 80.0316 19.2966C80.0316 20.0722 80.2439 20.7093 80.6687 21.2079C81.0934 21.688 81.6751 21.9281 82.4138 21.9281ZM105.852 26H100.866V18.6041C100.866 17.3299 100.22 16.6928 98.9271 16.6928C98.133 16.6928 97.422 17.0437 96.7942 17.7454V26H91.8082V12.6209H96.7942V14.1444C97.8837 12.9071 99.4164 12.2885 101.392 12.2885C102.87 12.2885 103.978 12.6855 104.716 13.4796C105.473 14.2552 105.852 15.2616 105.852 16.4989V26ZM113.093 10.8481C112.558 11.3837 111.902 11.6514 111.127 11.6514C110.351 11.6514 109.686 11.3837 109.132 10.8481C108.597 10.2941 108.329 9.62932 108.329 8.85372C108.329 8.07812 108.597 7.42256 109.132 6.88702C109.686 6.33302 110.351 6.05602 111.127 6.05602C111.902 6.05602 112.558 6.33302 113.093 6.88702C113.647 7.42256 113.924 8.07812 113.924 8.85372C113.924 9.62932 113.647 10.2941 113.093 10.8481ZM113.62 26H108.634V12.6209H113.62V26ZM121.826 26.3324C120.608 26.3324 119.389 26.1477 118.17 25.7784C116.951 25.3906 115.982 24.892 115.262 24.2826L117.256 20.9309C117.792 21.3556 118.549 21.7434 119.527 22.0943C120.506 22.4452 121.356 22.6206 122.076 22.6206C122.962 22.6206 123.405 22.4267 123.405 22.0389C123.405 21.8542 123.211 21.7065 122.824 21.5957C122.454 21.4849 121.993 21.411 121.439 21.3741C120.885 21.3187 120.275 21.2079 119.611 21.0417C118.946 20.8755 118.336 20.6631 117.782 20.4046C117.228 20.1276 116.757 19.6844 116.37 19.075C116 18.4656 115.816 17.7269 115.816 16.859C115.816 15.5848 116.342 14.5045 117.395 13.6181C118.466 12.7317 119.934 12.2885 121.799 12.2885C123.922 12.2885 125.852 12.861 127.588 14.0059L125.76 17.2468C125.298 16.8775 124.707 16.5543 123.987 16.2773C123.285 16.0003 122.565 15.8618 121.826 15.8618C121.476 15.8618 121.18 15.9264 120.94 16.0557C120.7 16.1665 120.58 16.2958 120.58 16.4435C120.58 16.6282 120.839 16.7667 121.356 16.859C121.873 16.9513 122.501 17.0621 123.239 17.1914C123.996 17.3207 124.744 17.5146 125.483 17.7731C126.24 18.0316 126.877 18.5025 127.394 19.1858C127.911 19.8506 128.17 20.7001 128.17 21.7342C128.17 23.0823 127.597 24.1903 126.452 25.0582C125.307 25.9077 123.765 26.3324 121.826 26.3324Z" fill="#132332"/>
<path fill-rule="evenodd" clip-rule="evenodd" d="M29.9461 5.95365H14.0532V12.9686H22.1763V22.5679C22.1763 25.6265 19.6968 28.106 16.6382 28.106C13.5796 28.106 11.1002 25.6265 11.1002 22.5679V18.6542L14.0533 17.7682H14.0538V22.5679C14.0538 23.9953 15.2109 25.1524 16.6382 25.1524C18.0656 25.1524 19.2227 23.9953 19.2227 22.5679V15.9222H8.88527V22.5665C8.88527 27.0114 12.5348 30.59 16.9788 30.5029C21.3013 30.4181 24.7611 26.8898 24.7611 22.5665V10.7537H16.2694V7.80006H27.7147V22.5665C27.7147 28.4985 22.9676 33.3397 17.0367 33.456C10.9391 33.5755 5.93163 28.6653 5.93163 22.5665V15.9222H3.00166L3.10882 22.566C3.22779 29.9421 9.24118 35.8593 16.6183 35.8593C24.1396 35.8593 30.2131 29.7172 30.1286 22.1963L29.9461 5.95365ZM11.1002 3V4.47681H11.0996V7.80006H5.93163V12.9686H0L0.155565 22.6136C0.300542 31.6022 7.62851 38.813 16.6183 38.813C25.7839 38.813 33.185 31.3282 33.082 22.1631L32.8667 3H11.1002ZM8.88527 10.7537H11.0996V12.9686H8.88527V10.7537Z" fill="#132332"/>
</svg>
