<svg width="261" height="81" viewBox="0 0 261 81" fill="none" xmlns="http://www.w3.org/2000/svg">
<path fill-rule="evenodd" clip-rule="evenodd" d="M23.5 0H72V44.5C72 64.3822 55.8823 80.5 36 80.5C16.1177 80.5 0 64.3822 0 44.5V23.5H11.5V11.5H23.5V0ZM23.5 23.5H17V17H23.5V23.5ZM29 5.5V23.5H48.5V44C48.5 50.9036 42.9036 56.5 36 56.5C29.0964 56.5 23.5 50.9036 23.5 44V35.25L29 33.75V44C29 47.866 32.134 51 36 51C39.866 51 43 47.866 43 44V29H29H28.25H17V44.25C17 54.6053 25.3947 63 35.75 63C46.1053 63 54.5 54.6053 54.5 44.25V17H35.25V11.5H60V44.25C60 57.6429 49.1429 68.5 35.75 68.5C22.3571 68.5 11.5 57.6429 11.5 44.25V29H5.5V44.5C5.5 61.3447 19.1553 75 36 75C52.8447 75 66.5 61.3447 66.5 44.5V5.5H29ZM226.626 55.196H211.662H211.414H196.87V52.4683L199.702 51.7864V39.4596C199.65 35.6304 198.129 33.6371 194.772 33.6895C193.198 33.742 191.834 34.319 191.047 34.7911V51.7864L194.037 52.5208V55.196H179.14V52.5208L182.707 51.7864V34.4763L179.14 33.742V31.3291L189.211 28.4441H189.474L190.628 33.0601H190.785C192.201 31.434 195.296 28.4965 199.545 28.4965C205.158 28.4965 208.095 31.2242 208.095 37.3089V51.7864L211.414 52.4697V52.4683L214.929 51.7864V34.4239L211.467 33.6371V30.9094L223.321 28.4965V51.7864L226.626 52.4683V55.196ZM223.898 20.3136C223.898 22.8314 221.957 24.9296 219.125 24.9296C216.187 24.9296 214.299 22.8314 214.299 20.3136C214.299 17.7957 216.24 15.75 219.125 15.75C222.01 15.75 223.898 17.7957 223.898 20.3136ZM133.142 19.9464L138.912 21.2578V29.2309C137.863 28.8637 136.604 28.6014 135.345 28.6014C127.844 28.6014 120.29 33.9518 120.29 43.1314C120.29 50.9996 125.116 55.9828 131.253 55.9828C135.607 55.9828 137.758 53.9371 139.646 51.7864L141.535 55.773L151.186 54.4616V51.8389L147.305 50.9996V16.0647L133.142 17.2712V19.9464ZM136.027 50.8947C131.883 50.8947 128.945 47.118 128.945 40.089C128.945 34.6337 131.306 32.0634 134.191 32.0634C136.341 32.0634 137.863 33.3223 138.912 34.896V50.1603C138.23 50.5275 137.233 50.8947 136.027 50.8947ZM110.669 56.0877L119.954 54.2518V51.6291L116.282 50.8422V28.8112L103.955 30.1226V32.6929L107.889 33.3748V49.3735C107.207 50.003 105.844 50.8947 103.745 50.8947C100.598 50.8947 99.549 48.5867 99.4441 45.2296V28.7588L87.4844 30.1226V32.6404L91.0513 33.3748V47.59C91.0513 53.9895 95.5624 55.9828 99.4965 55.9828C104.322 55.9828 107.102 52.9929 108.361 51.3143L110.669 56.0877ZM159.888 39.9841C159.888 40.8234 159.94 41.7676 160.045 42.7117C160.674 48.5867 162.877 52.9404 166.077 52.9404C169.015 52.9404 170.483 49.6358 170.483 44.8099C170.483 37.1515 167.703 31.8536 164.294 31.8536C161.409 31.8536 159.888 35.1583 159.888 39.9841ZM179.348 41.8725C179.348 49.8981 173.368 56.1402 165.185 56.1402C155.848 56.1402 151.023 49.9505 151.023 42.7642C151.023 34.7911 157.107 28.6014 165.185 28.6014C173.683 28.6014 179.348 33.9518 179.348 41.8725ZM237.492 56.1926C244.154 56.1926 249.084 52.2061 249.084 47.2753C249.084 43.7608 247.563 41.7151 242.528 39.6169L239.38 38.3055C236.39 37.0466 235.708 35.9975 235.708 34.5813C235.708 32.7453 237.125 31.5913 239.223 31.5913C241.164 31.5913 242.423 32.4306 243.157 33.0076L245.36 38.0957H247.721L247.511 30.3849C244.783 29.2309 242.265 28.4965 238.961 28.4965C232.666 28.4965 228.05 32.2208 228.05 36.8893C228.05 40.2464 229.519 42.5019 233.558 44.2854L236.758 45.7017C239.8 47.0655 241.059 48.3244 241.059 50.0554C241.059 51.8913 239.485 53.2027 237.177 53.2027C235.079 53.2027 233.768 52.4683 232.561 51.4192L229.519 45.4394H227.053L227.945 54.0944C231.512 55.5107 233.715 56.1926 237.492 56.1926ZM260.705 51.3143C260.705 53.7797 258.607 55.8779 256.089 55.8779C253.624 55.8779 251.526 53.7797 251.526 51.3143C251.526 48.7965 253.624 46.7508 256.089 46.7508C258.607 46.7508 260.705 48.7965 260.705 51.3143Z" fill="#29304A"/>
</svg>
