<svg width="154" height="168" viewBox="0 0 154 168" fill="none" xmlns="http://www.w3.org/2000/svg">
<path fill-rule="evenodd" clip-rule="evenodd" d="M137.494 15.5258H64.7147V47.6495H101.913V91.6083C101.913 105.615 90.5587 116.969 76.5524 116.969C62.546 116.969 51.1915 105.615 51.1915 91.6082V73.6859L64.7151 69.6289H64.7173V91.6082C64.7173 98.1446 70.016 103.443 76.5524 103.443C83.0887 103.443 88.3874 98.1446 88.3874 91.6083V61.1753H41.0488V91.6017C41.0488 111.956 57.7611 128.344 78.1119 127.945C97.9062 127.557 113.75 111.4 113.75 91.6017V37.5069H74.8632V23.9811H127.275V91.6017C127.275 118.767 105.537 140.936 78.3771 141.468C50.4539 142.016 27.523 119.53 27.523 91.6017V61.1753H15.7457L16.2364 91.5994C16.7812 125.377 42.6787 152.474 76.4609 152.474C110.904 152.474 138.717 124.347 138.33 89.9064L137.494 15.5258ZM51.1915 2V8.76282H51.189V23.9811H27.523V47.6495H2L2.71239 91.8175C3.37629 132.979 35.2936 166 76.4609 166C118.433 166 152.326 131.724 151.854 89.7544L150.868 2H51.1915ZM41.0488 37.5069H51.189V47.6495H41.0488V37.5069Z" fill="#171F26" stroke="#171F26" stroke-width="2.87"/>
</svg>
