<svg width="255" height="170" viewBox="0 0 255 170" fill="none" xmlns="http://www.w3.org/2000/svg">
<rect width="255" height="170" fill="white"/>
<rect width="255" height="21" fill="white"/>
<rect y="21" width="255" height="22" fill="#D80027"/>
<rect y="43" width="255" height="21" fill="white"/>
<rect y="64" width="255" height="21" fill="#D80027"/>
<rect y="85" width="255" height="21" fill="white"/>
<rect y="106" width="255" height="22" fill="#D80027"/>
<rect y="128" width="255" height="21" fill="white"/>
<rect y="149" width="255" height="21" fill="#D80027"/>
<rect width="128" height="92" fill="#2E52B2"/>
<path d="M21.5 14L23.6329 20.5643H30.535L24.9511 24.6213L27.084 31.1857L21.5 27.1287L15.916 31.1857L18.0489 24.6213L12.465 20.5643H19.3671L21.5 14Z" fill="white"/>
<path d="M21.5 37L23.6329 43.5643H30.535L24.9511 47.6213L27.084 54.1857L21.5 50.1287L15.916 54.1857L18.0489 47.6213L12.465 43.5643H19.3671L21.5 37Z" fill="white"/>
<path d="M21.5 60L23.6329 66.5643H30.535L24.9511 70.6213L27.084 77.1857L21.5 73.1287L15.916 77.1857L18.0489 70.6213L12.465 66.5643H19.3671L21.5 60Z" fill="white"/>
<path d="M49.5 14L51.6329 20.5643H58.535L52.9511 24.6213L55.084 31.1857L49.5 27.1287L43.916 31.1857L46.0489 24.6213L40.465 20.5643H47.3671L49.5 14Z" fill="white"/>
<path d="M49.5 37L51.6329 43.5643H58.535L52.9511 47.6213L55.084 54.1857L49.5 50.1287L43.916 54.1857L46.0489 47.6213L40.465 43.5643H47.3671L49.5 37Z" fill="white"/>
<path d="M49.5 60L51.6329 66.5643H58.535L52.9511 70.6213L55.084 77.1857L49.5 73.1287L43.916 77.1857L46.0489 70.6213L40.465 66.5643H47.3671L49.5 60Z" fill="white"/>
<path d="M77.5 14L79.6329 20.5643H86.535L80.9511 24.6213L83.084 31.1857L77.5 27.1287L71.916 31.1857L74.0489 24.6213L68.465 20.5643H75.3671L77.5 14Z" fill="white"/>
<path d="M77.5 37L79.6329 43.5643H86.535L80.9511 47.6213L83.084 54.1857L77.5 50.1287L71.916 54.1857L74.0489 47.6213L68.465 43.5643H75.3671L77.5 37Z" fill="white"/>
<path d="M77.5 60L79.6329 66.5643H86.535L80.9511 70.6213L83.084 77.1857L77.5 73.1287L71.916 77.1857L74.0489 70.6213L68.465 66.5643H75.3671L77.5 60Z" fill="white"/>
<path d="M105.5 14L107.633 20.5643H114.535L108.951 24.6213L111.084 31.1857L105.5 27.1287L99.916 31.1857L102.049 24.6213L96.465 20.5643H103.367L105.5 14Z" fill="white"/>
<path d="M105.5 37L107.633 43.5643H114.535L108.951 47.6213L111.084 54.1857L105.5 50.1287L99.916 54.1857L102.049 47.6213L96.465 43.5643H103.367L105.5 37Z" fill="white"/>
<path d="M105.5 60L107.633 66.5643H114.535L108.951 70.6213L111.084 77.1857L105.5 73.1287L99.916 77.1857L102.049 70.6213L96.465 66.5643H103.367L105.5 60Z" fill="white"/>
</svg>
