<svg width="60" height="8" viewBox="0 0 60 8" fill="none" xmlns="http://www.w3.org/2000/svg">
<g clip-path="url(#clip0_2422_6129)">
<path d="M-15 0L-3.86919 6.28129C-1.42893 7.65836 1.55393 7.65836 3.99419 6.28128L11.1933 2.21871C13.6336 0.841639 16.6164 0.84164 19.0567 2.21872L26.2558 6.28129C28.6961 7.65836 31.6789 7.65836 34.1192 6.28128L41.3183 2.21871C43.7586 0.841639 46.7414 0.84164 49.1817 2.21872L56.3808 6.28129C58.8211 7.65836 61.8039 7.65836 64.2442 6.28128L71.4433 2.21871C73.8836 0.841639 76.8664 0.84164 79.3067 2.21872L86.5058 6.28129C88.9461 7.65836 91.9289 7.65836 94.3692 6.28128L101.568 2.21871C104.009 0.841639 106.991 0.84164 109.432 2.21872L116.631 6.28129C119.071 7.65836 122.054 7.65836 124.494 6.28128L131.693 2.21871C134.134 0.841639 137.116 0.84164 139.557 2.21872L146.756 6.28129C149.196 7.65836 152.179 7.65836 154.619 6.28128L161.818 2.21871C164.259 0.841639 167.241 0.84164 169.682 2.21872L176.881 6.28129C179.321 7.65836 182.304 7.65836 184.744 6.28128L191.943 2.21871C194.384 0.841639 197.366 0.84164 199.807 2.21872L207.006 6.28129C209.446 7.65836 212.429 7.65836 214.869 6.28128L226 0" stroke="#DCE8F7"/>
</g>
<defs>
<clipPath id="clip0_2422_6129">
<rect width="60" height="8" fill="white"/>
</clipPath>
</defs>
</svg>
